<svg xmlns="http://www.w3.org/2000/svg" width="537.176" height="502.393" viewBox="0 0 537.176 502.393">
  <g id="SVG" transform="translate(-906.611 -308.607)">
    <g id="undraw_personal_finance_tqcd" transform="translate(906.611 308.607)">
      <path id="Path_1" data-name="Path 1" d="M830.164,604.414s66.456,3.436,50.977,24.356S824.989,616.5,824.989,616.5Z" transform="translate(-402.323 -247.471)" fill="#ffb8b8"/>
      <path id="Path_2" data-name="Path 2" d="M643.86,313.448l13.527,3.382s7.891,23.672,13.527,45.089,16.908,85.669,16.908,85.669l87.391,61.246L764.79,532.151l-116.42-45.883-25.926-101.8Z" transform="translate(-338.486 -155.766)" fill="#575a89"/>
      <path id="Path_3" data-name="Path 3" d="M452.839,291.607,447.8,397.183l10.52,31.389-30.817-22.6Z" transform="translate(-134.737 -91.907)" opacity="0.2"/>
      <path id="Path_4" data-name="Path 4" d="M626.929,641.667s14.654,39.453,16.908,66.506,4.509,48.471,4.509,48.471H579.586l-13.527-20.29v20.29H486.026s-22.544-73.269-13.527-82.287,94.687-47.344,94.687-47.344Z" transform="translate(-290.556 -254.593)" fill="#2f2e41"/>
      <rect id="Rectangle_2" data-name="Rectangle 2" width="397.884" height="1.37" transform="translate(69.51 501.023)" fill="#3f3d56"/>
      <circle id="Ellipse_1" data-name="Ellipse 1" cx="42.835" cy="42.835" r="42.835" transform="translate(207.305 29.178)" fill="#ffb8b8"/>
      <path id="Path_5" data-name="Path 5" d="M523.772,214.688l-3.382,49.6,42.835,57.489,21.418-54.107s-19.163-12.4-7.891-38.326Z" transform="translate(-306.321 -124.639)" fill="#ffb8b8"/>
      <path id="Path_6" data-name="Path 6" d="M617.765,534.881c0,10.149-28.181,25.928-28.181,25.928v5.636l-11.272,5.636-24.8-49.6-6.759,54.1s-49.6,7.9-65.38,0-23.674-4.506-46.219-12.4,9.019-113.852,9.019-113.852L421.631,286.892l49.253-24.626,2.6-1.3,6.773-1.246,10.382-1.918,34.7,23.455,2.794,14.655,1.719,9.019,9.012-10.149,6.807-22.387,48.431,26.9L580.572,407.5S617.765,524.738,617.765,534.881Z" transform="translate(-275.195 -138.227)" fill="#575a89"/>
      <path id="Path_7" data-name="Path 7" d="M460.884,713.428s51.852,41.708,27.054,49.6-38.326-42.835-38.326-42.835Z" transform="translate(-284.014 -281.829)" fill="#ffb8b8"/>
      <path id="Path_8" data-name="Path 8" d="M417.339,302.534l-11.272-2.254s-16.908,9.018-18.036,27.053S372.25,471.619,372.25,471.619L419.593,599l38.326-14.654-37.2-119.486L448.9,361.15Z" transform="translate(-259.631 -151.616)" fill="#575a89"/>
      <circle id="Ellipse_2" data-name="Ellipse 2" cx="4.109" cy="4.109" r="4.109" transform="translate(250.989 177.101)" fill="#2f2e41"/>
      <circle id="Ellipse_3" data-name="Ellipse 3" cx="4.109" cy="4.109" r="4.109" transform="translate(250.989 203.809)" fill="#2f2e41"/>
      <circle id="Ellipse_4" data-name="Ellipse 4" cx="4.109" cy="4.109" r="4.109" transform="translate(274.273 379.809)" fill="#2f2e41"/>
      <path id="Path_9" data-name="Path 9" d="M515.094,111.328l-7.918-3.17s16.556-18.228,39.591-16.643l-6.478-7.133s15.836-6.34,30.233,10.3c7.568,8.749,16.324,19.032,21.783,30.616h8.48l-3.539,7.793,12.387,7.793-12.714-1.4a43.543,43.543,0,0,1,.345,12.926,16.724,16.724,0,0,1-6.124,10.941h0s-9.82-20.326-9.82-23.5v7.925s-7.918-7.132-7.918-11.887l-4.319,5.548H540.289l4.319-7.132-16.556,2.377,6.479-8.718-25.634,36S494.219,123.215,515.094,111.328Z" transform="translate(-301.119 -83.197)" fill="#2f2e41"/>
      <circle id="Ellipse_5" data-name="Ellipse 5" cx="68.483" cy="68.483" r="68.483" transform="translate(400.211 194.179)" fill="#3f3d56"/>
      <circle id="Ellipse_6" data-name="Ellipse 6" cx="58.895" cy="58.895" r="58.895" transform="translate(409.798 203.767)" opacity="0.1"/>
      <path id="Path_10" data-name="Path 10" d="M882.817,485.422V476.85a19.9,19.9,0,0,1-11.431-3.734l1.793-5.686a18.272,18.272,0,0,0,10.758,3.649c5.3,0,8.891-3.48,8.891-8.317,0-4.668-2.914-7.553-8.442-10.1-7.62-3.395-12.327-7.3-12.327-14.683a13.344,13.344,0,0,1,11.281-13.664v-8.572h4.632v8.233a18.177,18.177,0,0,1,9.712,2.97l-1.868,5.6a16.509,16.509,0,0,0-9.413-2.886c-5.753,0-7.919,3.9-7.919,7.3,0,4.413,2.764,6.62,9.264,9.676,7.695,3.565,11.58,7.978,11.58,15.531,0,6.7-4.109,12.986-11.8,14.428v8.827Z" transform="translate(-416.946 -188.006)" fill="#0198ff"/>
      <path id="Path_11" data-name="Path 11" d="M250.005,503.273l27.39,85.557L255.48,499.8Z" transform="translate(-78.795 -157.525)" opacity="0.2"/>
      <path id="Path_12" data-name="Path 12" d="M244.578,329.867H227.193a2.861,2.861,0,0,1-2.858-2.858V302.018a2.861,2.861,0,0,1,2.858-2.858h17.385a2.861,2.861,0,0,1,2.858,2.858v24.991a2.861,2.861,0,0,1-2.859,2.858ZM227.192,300.53a1.49,1.49,0,0,0-1.488,1.488V327.01a1.49,1.49,0,0,0,1.489,1.488h17.385a1.49,1.49,0,0,0,1.488-1.488V302.018a1.49,1.49,0,0,0-1.488-1.488Z" transform="translate(-213.012 -151.263)" fill="#3f3d56"/>
      <path id="Path_13" data-name="Path 13" d="M291.335,317.366h-15.7a3.705,3.705,0,0,1-3.7-3.7V263.194a3.705,3.705,0,0,1,3.7-3.7h15.7a3.7,3.7,0,0,1,3.7,3.7v50.471A3.705,3.705,0,0,1,291.335,317.366Zm-15.7-56.5a2.334,2.334,0,0,0-2.331,2.331v50.471A2.334,2.334,0,0,0,275.635,316h15.7a2.334,2.334,0,0,0,2.331-2.331V263.194a2.334,2.334,0,0,0-2.331-2.331Z" transform="translate(-228.014 -138.761)" fill="#3f3d56"/>
      <path id="Path_14" data-name="Path 14" d="M338.329,305.864H323.842a4.312,4.312,0,0,1-4.307-4.307v-74.25A4.312,4.312,0,0,1,323.842,223H338.33a4.312,4.312,0,0,1,4.307,4.307v74.25a4.312,4.312,0,0,1-4.307,4.307ZM323.842,224.37a2.941,2.941,0,0,0-2.937,2.937v74.25a2.941,2.941,0,0,0,2.937,2.937H338.33a2.941,2.941,0,0,0,2.937-2.937v-74.25a2.941,2.941,0,0,0-2.937-2.937Z" transform="translate(-243.017 -127.259)" fill="#3f3d56"/>
      <rect id="Rectangle_3" data-name="Rectangle 3" width="13.039" height="21.189" transform="translate(16.354 152.657)" fill="#0198ff"/>
      <rect id="Rectangle_4" data-name="Rectangle 4" width="13.039" height="48.082" transform="translate(48.951 125.763)" fill="#0198ff"/>
      <rect id="Rectangle_5" data-name="Rectangle 5" width="13.039" height="73.073" transform="translate(81.549 100.772)" fill="#0198ff"/>
      <path id="Path_15" data-name="Path 15" d="M888.568,185.821H797.486a.685.685,0,0,1-.685-.685V92.685a.685.685,0,1,1,1.37,0v91.767h90.4a.685.685,0,0,1,0,1.37Z" transform="translate(-393.439 -85.971)" fill="#3f3d56"/>
      <path id="Path_16" data-name="Path 16" d="M316.688,307.887h-108.2a.685.685,0,0,1-.685-.685V199.685a.685.685,0,1,1,1.37,0V306.518H316.688a.685.685,0,1,1,0,1.37Z" transform="translate(-207.801 -119.695)" fill="#3f3d56"/>
      <path id="Path_17" data-name="Path 17" d="M834.383,202.335H817a2.861,2.861,0,0,1-2.858-2.858V174.486A2.861,2.861,0,0,1,817,171.628h17.385a2.861,2.861,0,0,1,2.858,2.858v24.991a2.861,2.861,0,0,1-2.857,2.858ZM817,173a1.49,1.49,0,0,0-1.489,1.488v24.992A1.491,1.491,0,0,0,817,200.965h17.385a1.49,1.49,0,0,0,1.488-1.488V174.486A1.49,1.49,0,0,0,834.383,173Z" transform="translate(-398.903 -111.068)" fill="#3f3d56"/>
      <path id="Path_18" data-name="Path 18" d="M886.691,192.367h-16a3.554,3.554,0,0,1-3.55-3.55V143.55a3.554,3.554,0,0,1,3.55-3.55h16a3.554,3.554,0,0,1,3.55,3.55v45.267a3.554,3.554,0,0,1-3.55,3.55Zm-16-51a2.183,2.183,0,0,0-2.18,2.18v45.267a2.183,2.183,0,0,0,2.18,2.181h16a2.183,2.183,0,0,0,2.18-2.181V143.55a2.182,2.182,0,0,0-2.18-2.18Z" transform="translate(-415.608 -101.1)" fill="#3f3d56"/>
      <path id="Path_19" data-name="Path 19" d="M0,0H13.039V21.189H0Z" transform="translate(419.954 65.556)" fill="#0198ff"/>
      <rect id="Rectangle_7" data-name="Rectangle 7" width="13.039" height="40.996" transform="translate(456.563 44.586)" fill="#0198ff"/>
      <circle id="Ellipse_7" data-name="Ellipse 7" cx="6.163" cy="6.163" r="6.163" transform="translate(420.483 40.955)" fill="#0198ff"/>
      <circle id="Ellipse_8" data-name="Ellipse 8" cx="6.163" cy="6.163" r="6.163" transform="translate(456.779 17.671)" fill="#0198ff"/>
    </g>
  </g>
</svg>
